<svg xmlns="http://www.w3.org/2000/svg" width="612" height="408" viewBox="0 0 612 408">
  <metadata><?xpacket begin="﻿" id="W5M0MpCehiHzreSzNTczkc9d"?>
<x:xmpmeta xmlns:x="adobe:ns:meta/" x:xmptk="Adobe XMP Core 5.6-c142 79.160924, 2017/07/13-01:06:39        ">
   <rdf:RDF xmlns:rdf="http://www.w3.org/1999/02/22-rdf-syntax-ns#">
      <rdf:Description rdf:about=""/>
   </rdf:RDF>
</x:xmpmeta>
                                                                                                    
                                                                                                    
                                                                                                    
                                                                                                    
                                                                                                    
                                                                                                    
                                                                                                    
                                                                                                    
                                                                                                    
                                                                                                    
                                                                                                    
                                                                                                    
                                                                                                    
                                                                                                    
                                                                                                    
                                                                                                    
                                                                                                    
                                                                                                    
                                                                                                    
                                                                                                    
                           
<?xpacket end="w"?></metadata>
<defs>
    <style>
      .cls-1 {
        fill: #e9d7e7;
      }

      .cls-1, .cls-10, .cls-11, .cls-2, .cls-3, .cls-4, .cls-5, .cls-6, .cls-7, .cls-8, .cls-9 {
        fill-rule: evenodd;
      }

      .cls-2 {
        fill: #b7b7b7;
      }

      .cls-3 {
        fill: #f9ad81;
      }

      .cls-4 {
        fill: #3c1c1d;
      }

      .cls-5 {
        fill: #252525;
      }

      .cls-6 {
        fill: #fdc689;
      }

      .cls-7 {
        fill: #998675;
      }

      .cls-8 {
        fill: #707070;
      }

      .cls-9 {
        fill: #362f2d;
      }

      .cls-10 {
        fill: #a3d39c;
      }

      .cls-11 {
        fill: #c7b299;
      }
    </style>
  </defs>
  <g>
    <path class="cls-1" d="M302,198.036c-2.149-3.374-4.417-7.151-5-9-1.139-3.6-.556-6.02-2.09-9.553-0.722-1.663-1.538-2.668-1.91-4.442-0.677-3.228.666-4.9,0.052-7.764-0.885-4.131-8.7-8.691-9.293-9.287-3.522-3.539-4.672-6.759-7.169-6.634-1.719.085-4.191,2.645-6.638,7.96a34.269,34.269,0,0,0-2.92,9.288c-1.113,10.222,7.878,23.433,9.027,27.066,2.184,6.909,1.425,13.238,2.655,21.229,0.8,5.206,2.32,9.181,2.39,14.063,0.154,10.751-7.965,23.615-3.452,33.435A19.182,19.182,0,0,0,288,274.009c7.863,2.97,15.563-2.1,24.434-1.647a52.054,52.054,0,0,1,8.762,1.061,15.493,15.493,0,0,0,5.8.586c1.635-.2,3.245-0.692,5-1,1.646-.289,2.83-0.4,3,0,0.353,0.831-4.194,2.764-4,5,0.19,2.193,4.605,3.817,8.25,4.439,11.033,1.882,20.464-7,28.41-8.757,2.6-.576,18.651.639,22.34-4.678,2.97-4.282-.046-11.166,2.618-12.836,3.457-2.167,12.058,8.095,22.037,9.288,8.145,0.973,17.885-2.292,22.568-9.288a17.128,17.128,0,0,0,1.328-2.388c4.061-8.831-.32-18.722-4.779-31.047-2.493-6.889-3.913-12.96-6.772-19.705-2.369-5.589-5.678-11.209-8.628-17.179-4.791-9.7-7.518-15.66-13.541-19.106-3.907-2.235-8.559-1.722-12.831-5.7-2.51-2.338-3.339-6.063-7-8-3.5-1.848-6.257-.608-10-2a26.976,26.976,0,0,1-6-4c-1.384-1.17-2.6-2.585-4-4-2.951-2.978-4.783-4.637-5.571-7.618A29.6,29.6,0,0,1,359,132.06c-0.914-5.568-6.289-11.6-10-11-5.683.929-5.511,23.163-11.874,37.46-4.326,9.721-9.371,18.268-13.126,26.517-0.972,2.136-2.039,3.857-3,6-1.182,2.633-2.244,5.3-5,8-2.948,2.889-6.156,4.716-9,4C305,202.531,303.873,200.977,302,198.036Z"/>
    <path class="cls-2" d="M264,113.067c-4.919-9.577,3.849-22.415-2-28.989-1.091-1.227-2.863-2.485-4-2-2.237.956,0.016,16.506,0,18.993-0.022,3.488-.235,6.515,0,10,0.2,2.909,1.013,4.777.9,7.691-0.1,2.8-.69,5.7,1.1,8.3a18.63,18.63,0,0,0,1.977,2c1.441,1.333,2.474,2.134,3.023,2,1.157-.292,1.776-2.317,2.024-5.943a19.28,19.28,0,0,0-.878-7.455A30.387,30.387,0,0,0,264,113.067Z"/>
    <path id="neck" class="cls-3" d="M330,125.063c1.092,7.409,2.355,16.171,3.406,21.556,0.613,3.14,1.733,8.429-.165,14.5a46.044,46.044,0,0,1-4.285,8.24,39.131,39.131,0,0,0-4.121,7.58,51.278,51.278,0,0,0-1.483,5.109c-0.331,1.287-.775,2.878-0.989,3.79-0.9,3.854-1.5,7.421-3.791,10.876a11,11,0,0,1-3.626,3.625c-1.539.89-2.568,0.617-4.121,1.483-1.144.638-1.749,1.27-2.825,1.212a4.43,4.43,0,0,1-3-2c-1.6-2.07-3.152-4.666-4.229-6.133-0.478-.65-1.727-2.169-2.638-3.3a9.338,9.338,0,0,1-1.978-3.46c-0.475-1.636-.449-4.588.989-8.24,0.515-1.306,1.269-2.86.66-4.449a10.358,10.358,0,0,0-1.8-2.412,3.123,3.123,0,0,1-1-2,1.958,1.958,0,0,0,0-1c-0.26-.219-1.073.929-1.976,0.962-1.461.052-2.631-2.213-3.024-2.961-0.918-1.748-3.308-5.953-5-9,0.014,0.335.014,0.666,0,1-0.126,3-1.35,5.249-1.536,5.19-0.21-.066,1.168-3,0.165-6.1-0.589-1.818-2.287-3.043-3.956-5.109a15.577,15.577,0,0,1-1.813-2.8,8.979,8.979,0,0,1-.165-8.4C280.772,135.214,313.155,128,330,125.063Z"/>
    <path class="cls-4" d="M261,151.053c4.508-5.079,5.973-9.428,11-14,9.243-8.4,20.291-10.228,35-15.994,9.486-3.718,14.8-6.617,23-6,11.335,0.857,20.071,7.355,25,13,4.645,5.316,6.56,10.8,6.553,12.949-0.012,3.592-1.679,6.728-2.124,11.145a13.718,13.718,0,0,0,0,3.449c0.848,4.52,4.941,6.442,6.571,10.443a20.826,20.826,0,0,1,1,5,22.383,22.383,0,0,1-2.261,12.422c-1.318,2.485-3.154,4-5.044,6.368-3.861,4.833-.786,6.887-0.695,10.2,0.028,1.017-4.4,3.664-4,5,1.245,4.136,3.805,5.33,5,9,0.787,2.414.055,5.375-.305,9.24-0.437,4.685-.35,9.194.305,10.752a11.234,11.234,0,0,1,1.022,3.577,10.809,10.809,0,0,1-1.327,5.573c-1.286,2.436-1.825,4.5-3.187,6.9-3.553,6.249-7.171,16.1-10.508,22.937-3.979,8.154-27.882,7.918-33,3-4.152-3.99,8.6-4.9,5.275-4.973-4.021-.093-7.762.177-12.275-2.024-4.022-1.962-2.813,5.2,0,8,11.7,11.628-.684-0.875-4-23.992-0.229-1.6,2.289-5.939,2.734-10.9,0.2-2.276-.176-3.846.266-6.088,1.339-6.792,4.014-10.9,9-16.994,2.277-2.784-.758-11.771,6-15,3.881-1.852-1.955-10.279,2-11,4.7-.852,4.71-6.258,3.444-10.1a11.05,11.05,0,0,1-.531-5.042c0.57-3.433,2.928-5.081,5.087-7.849,1.953-2.5,2.339-4.989,4-8,0.678-1.227-3.136-5.294-2-8,0.264-.628-0.137-1.816,0-3,0.482-4.165,2.623-6.421,0-11-1.571-2.739-.435-10.046-2-11-4.271-2.59-11.021,5.8-21.283,12.481-5.518,3.589-15.416,10.173-25.489,14.063a49.78,49.78,0,0,1-10.886,2.389c-4.85.48-12.494,0.711-13.541-2.123C258.185,154.205,260.063,152.109,261,151.053Z"/>
    <path id="hair" class="cls-5" d="M267,87.077a6.191,6.191,0,0,0-2,3c-1.035,3.01-.15,5.535,0,9,0.09,2.077-.406,3.448-0.326,5.526,0.105,2.779.772,4.808,0.989,7.58,0.157,2.017-.107,3.583,0,5.6,0.2,3.905.884,6.4,0.329,6.592-0.431.151-1.3-2.436-1.992-2.309-0.922.171-.326,4.866-1,5-1.157.226-4.395-13.294-5-19.993a21.847,21.847,0,0,1,0-5c0.454-2.076,1.332-3.16,1-5-0.327-1.808-1.472-2.3-2-4-0.446-1.433-.107-2.959,0-5,0.142-2.7-.072-4.229-1-5-1.042-.864-2.875-0.5-3-1a1.457,1.457,0,0,1,1-1c1.525-.722,3.439.269,3.751-0.21,0.238-.366-0.767-1.172-1.154-1.977-0.439-.912-1.306-2.362-1.978-3.625-2.261-4.25-3.613-6.668-2.619-8.182,0.548-.834,1.812-1.078,2.454-1.541A7.064,7.064,0,0,0,257,61.086a7.964,7.964,0,0,0,5.036-.322c1.213-.515,2.017-1.556,3.3-2.637,1.032-.871,1.8-1.445,1.667-2.04-0.223-1-2.712-.894-3-2-0.293-1.123,2.01-2.219,2-4a2,2,0,0,1,0-1c0.541-1,3.139-.073,5-1a7.641,7.641,0,0,1,2-1,5.493,5.493,0,0,1,2,0,7.5,7.5,0,0,0,5-1c1.79-1.157,1.967-3.045,4-4a5.073,5.073,0,0,1,4.244-.115c0.719,0.364,1.047,1.009,1.978,1.318,1.03,0.343,1.633-.078,2.778-0.2,2.454-.271,3.89,1.738,6,1,1.32-.462,1.817-2.022,3-2,1.624,0.031,2.217,2.81,4,3,1.042,0.11,1.729-.765,3.177-1.8a16.248,16.248,0,0,1,3.3-1.813A23.9,23.9,0,0,1,316.1,40.5a9.73,9.73,0,0,1,3.9-.4,6.847,6.847,0,0,1,4.341,4.192c0.769,2.011.1,3.1,0.824,5.108a15.371,15.371,0,0,0,2.637,3.625c0.582,0.656,2.106,2.625,3.2,4.069,0.577,0.763,1.247,1.7,1,2-0.4.491-3.067-.8-3-1,0.1-.306,7.114.791,8.032,4.16,0.829,3.04-4.188,6.657-3.131,8.569,0.777,1.407,4.243.492,4.78,1.813,0.2,0.485-.173,1.02-0.66,1.977A12.023,12.023,0,0,0,337,77.08c-0.363,2.151,1.584,4.486,2,6,0.412,1.5.257,2.556,0.67,4.052,0.243,0.885.565,1.591,0.824,2.472a23.6,23.6,0,0,1,.659,4.944,15.782,15.782,0,0,1-.165,4.779c-0.648,2.018-2.5,3.854-2.967,4.614a13.353,13.353,0,0,0-1.978,5.273,28.6,28.6,0,0,0,.33,5.932,27.714,27.714,0,0,1-.373,4.921c-0.481,3.156-1.318,5.5-2,6-2.851,2.065-8.154-.618-11-3-1.433-1.2-6.081-5.56-5-10,0.921-3.779,6.39-5.61,6-7-0.441-1.568-7.7-.7-8-2-0.269-1.159,5.215-3,5-5-0.116-1.074-2.082-1.5-3-3a6.26,6.26,0,0,1-1-3c-0.011-1.4,1.179-2.7.912-2.978-0.468-.5-3.944,2.686-4.912,1.978-1.317-.963,2.094-8.778,2.77-8.57,0.589,0.182.162,6.792-3.77,9.57-2.821,1.993-7.614,2.124-11,0-3.079-1.932-3.882-6.392-7-7-2.3-.446-3.662,1.691-6,1-2.163-.639-2.846-3.511-4.207-3.407-2.346.18-2.567,8.644-5.793,9.4-1.253.3-2.7-.821-5-3-1.381-1.307-2.694-2.62-4-4A5.667,5.667,0,0,0,267,87.077Z"/>
    <path id="face" class="cls-6" d="M320,97.073c0.433,3.856,4.081,7.178,5,9,1.709,3.383.747,5.419,2,9,0.615,1.755,2.442,4.825,3,8a34.289,34.289,0,0,1,0,7,29.793,29.793,0,0,1-1,7,22.432,22.432,0,0,1-4,7c-7.917,9.547-18.031,18.662-27,19.993a12.587,12.587,0,0,1-4,0c-5.151-.866-8.35-4.87-10-7-3.014-3.887-6.883-9.07-8-11-4.027-6.942-8.33-11.695-10-17.993-1.6-6.02-.672-11.188-1-17.994-0.236-4.9-.675-14-1-14.994-0.406-1.242-1.632-4.636,0-7a5.6,5.6,0,0,1,3-2,23.784,23.784,0,0,1,6-1c4.152,0.109,6.971-.849,11.123-0.748,1.218,0.029,2.245.078,3.461,0,3.124-.2,5.294-1.036,8.416-1.251a13.52,13.52,0,0,1,6.254.756c1.151,0.484,1.844,1.1,2.967,1.648,2.433,1.183,6.229,2.217,7.912.659,0.316-.293.527-0.682,0.867-1.064a12.14,12.14,0,0,1,1-1,10.96,10.96,0,0,1,4,4,8.788,8.788,0,0,1,1.22,3.833,13.526,13.526,0,0,1-.22,2.165A13.933,13.933,0,0,0,320,97.073Z"/>
    <path class="cls-2" d="M336,74.081c3.944,9.046,7.917,14.642,7.606,21.654A22.984,22.984,0,0,1,340.1,106.7c-0.856,1.361-5.311,5.4-6.144,9.429-0.994,4.814,1.192,11.088,4.828,11.841,3.2,0.663,6.594-3.156,8.119-5.7,1.417-2.367,1.808-4.6,2.1-8.2a72.8,72.8,0,0,0,.311-8.026,67.1,67.1,0,0,0-1.536-10.086c-0.632-3.169-1.517-7.56-1.755-9.21a56.9,56.9,0,0,0-1.756-7.675,26.414,26.414,0,0,0-1.316-3.289,16.2,16.2,0,0,0-3.292-4.824A23.124,23.124,0,0,0,337,69.083c-1.7-1.213-2.639-2.218-3-2C333.261,67.532,334.9,71.55,336,74.081Z"/>
    <path class="cls-7" d="M344,103.071c-0.188,2.683-3.275,5.161-4.2,6.86a25.6,25.6,0,0,0-1.5,4.357c-0.386,1.433-.466,2.644-0.817,4.086a8.269,8.269,0,0,0-.136,3.813,2.916,2.916,0,0,0,1.362,2.178,2.352,2.352,0,0,0,1.5,0c1.13-.216,1.768.085,2.861-0.272a6.5,6.5,0,0,0,2.588-1.634,8.072,8.072,0,0,0,1.908-3.677,10.487,10.487,0,0,0,.272-2.723c-0.022-1.681-.438-3.5-0.545-4.631-0.1-1.046,0-2.8,0-3.4,0-1.832-.388-3.412-0.136-4.766a2.914,2.914,0,0,0-.159-2.186c-0.577-.895-1.624-0.689-3.111-1.219-1.244-.444-2.409-1.936-3.889-1.781a4.33,4.33,0,0,0-2.787,1.917,7.888,7.888,0,0,0-.953,2.042c-0.2.6-.454,1.614-0.818,2.451s-0.89,1.528-1.226,2.179a11.151,11.151,0,0,0-1.09,4.63c-0.1,1.294-.23,2.935-0.272,3.813-0.071,1.462-.152,3.073-0.137,4.222a25.375,25.375,0,0,1,.137,3.132,4.69,4.69,0,0,0,.146,2.6,4.517,4.517,0,0,0,2.17,2.026c0.6,0.345,1.207.665,1.83,0.973a4.458,4.458,0,0,0,1,0c2.556-.294,3.806-3.1,6-3a2.588,2.588,0,0,0,1,0c0.774-.225,1.5-1.073,2-3,1.1-4.217,1.537-17.163-1-24.991-0.218-.673-0.847-2.508,0-4,0.535-.942,1.378-1.192,2-2a6.189,6.189,0,0,0,1-3c0.394-2.389.58-3.937-.07-4.973a6.312,6.312,0,0,0-1.771-1.5A11.15,11.15,0,0,1,344,79.08a8.272,8.272,0,0,1-1-2c-1.144-3.453-7.593-10.463-13-15.994a7.117,7.117,0,0,0,0,4c0.91,2.9,3.6,3.846,6,6a17.228,17.228,0,0,1,5,9,3.2,3.2,0,0,0-2,2c-0.212,1.03.782,2.12,1,3,0.324,1.3-.108,2.083.075,3.473A5.13,5.13,0,0,0,341,91.075a9.9,9.9,0,0,0,2.344,1.425,1.261,1.261,0,0,1,.656.575c0.334,0.76-.792,2.089-1,3a7.214,7.214,0,0,0,0,2C343.238,100.136,344.117,101.4,344,103.071Z"/>
    <path class="cls-7" d="M261,107.069c0.9,0.406.757,3.594,0,9a15.955,15.955,0,0,0,.054,6.665c0.243,0.975,1.251,3.11.946,3.331-0.391.284-2.338-1.03-3-3-0.671-1.995.6-4.391,0.692-5.78a18.567,18.567,0,0,0-.818-5.992,3.918,3.918,0,0,1,.126-3.223A1.987,1.987,0,0,1,261,107.069Z"/>
    <path id="typy" class="cls-8" d="M332,275.008l-44,9-161-6-10-8c18.922-1.35,68-4.608,85-6,11-.9,29.492-1.652,47.237.73,14.291,1.919,23.228,6.365,36.763,11.266v-9c14,1.333,33,1.666,47,3Q332.5,272.509,332,275.008Z"/>
    <path id="pc1" class="cls-9" d="M105,153.053q6.5,59.478,13,118.956l172,4-6-118.957-8-6-169-3Q106,150.555,105,153.053Z"/>
    <path class="cls-10" d="M349,278.007c-0.667,4.332,1.667,9.663,1,14,33,2.333,63,3.666,96,6l40-16.994a8.729,8.729,0,0,0,1-4c0-3.776-2.6-7.087-6-9a188.811,188.811,0,0,0-79-2,185.226,185.226,0,0,0-39,12H349Z"/>
    <path class="cls-11" d="M350,262.013v15.994c27,1.333,64,2.666,91,4,17.667-2,26.333-6,44-8,1.584-3.965.974-6.073-1-9-1.817-2.692-4.047-5.585-7-6-10.826-1.514-30.307,6.723-44,1-3.306-1.382-4.978-3.34-8-5-14.22-7.8-33.653-5.026-57,6Z"/>
    <path class="cls-7" d="M361,251.017c11.333-2.666,36.667-5.331,48-8,23,2,42,2,65,4a10.88,10.88,0,0,1,4,13c-9.333,1.666-31.667,3.332-41,5-26.333-1.333-47.667-2.666-74-4C363,257.015,361,255.016,361,251.017Z"/>
  </g>
</svg>
